<?xml version="1.0" ?><!DOCTYPE svg  PUBLIC '-//W3C//DTD SVG 1.1//EN'  'http://www.w3.org/Graphics/SVG/1.1/DTD/svg11.dtd'><svg enable-background="new 0 0 512 512" height="512px" id="Слой_1" version="1.1" viewBox="0 0 512 512" width="512px" xml:space="preserve" xmlns="http://www.w3.org/2000/svg" xmlns:xlink="http://www.w3.org/1999/xlink"><g><g><g><g><path d="M349.786,434.138c-1.849,0-3.615-0.938-4.634-2.561c-24.59-39.126-30.662-75.303-18.048-107.519       l44.063-112.398c0.063-0.166,0.139-0.326,0.219-0.486c5.543-10.897,14.667-14.203,25.03-9.054       c10.001,4.981,13.365,17.46,10.009,37.085l-4.001,23.043c17.265-23.925,25.622-44.367,24.882-60.935       c-2.157-44.5,2.638-69.32,15.086-78.087c4.055-2.852,11.019-5.377,21.209-1.163c1.702,0.703,2.938,2.221,3.285,4.032       c6.881,36.049,10.251,71.989,10.016,106.822c-0.242,25.68-9.067,51.835-26.223,77.753l-20.067,29.795       c-7.382,10.405-9.688,21.095-7.13,32.782l7.319,33.734c0.62,2.849-1.104,5.681-3.915,6.442l-75.667,20.522       C350.743,434.078,350.262,434.138,349.786,434.138z M381.258,215.914l-43.96,112.137c-10.92,27.885-5.869,59.582,15.006,94.262       l66.698-18.088l-6.217-28.646c-3.206-14.654-0.24-28.563,8.822-41.336l19.967-29.648c15.946-24.09,24.156-48.249,24.381-71.765       c0.225-33.108-2.884-67.275-9.241-101.584c-4.266-1.151-6.588-0.074-8.018,0.931c-4.979,3.503-12.954,17.08-10.455,68.63       c1.051,23.542-12.277,51.51-40.745,85.526c-1.587,1.893-4.247,2.496-6.502,1.451c-2.245-1.042-3.512-3.461-3.09-5.903       l7.731-44.532c1.682-9.822,2.336-22.225-4.094-25.426C387.418,209.875,384.403,209.875,381.258,215.914z M162.462,434.138       c-0.476,0-0.957-0.06-1.433-0.19l-75.736-20.522c-2.809-0.762-4.529-3.586-3.918-6.432l7.251-33.726       c2.605-11.724,0.339-22.412-6.922-32.706l-20.178-29.846c-17.182-25.96-26.003-52.113-26.252-77.785       c-0.208-34.858,3.186-70.797,10.089-106.84c0.345-1.81,1.579-3.321,3.282-4.027c10.168-4.208,17.131-1.694,21.182,1.157       c12.438,8.76,17.219,33.584,15.044,78.116c-0.74,16.533,7.604,36.952,24.841,60.852l-4.022-22.959       c-0.002-0.008-0.005-0.019-0.005-0.029c-3.333-19.628,0.059-32.104,10.078-37.08c10.375-5.139,19.52-1.838,25.095,9.043       c0.083,0.16,0.157,0.326,0.225,0.497l44.059,112.396c12.617,32.219,6.545,68.396-18.044,107.521       C166.078,433.196,164.312,434.138,162.462,434.138z M93.166,404.219l66.778,18.097c20.875-34.683,25.924-66.38,15.004-94.265       L130.993,215.92c-3.175-6.05-6.214-6.048-10.366-3.992c-6.454,3.203-5.821,15.595-4.151,25.434l7.796,44.514       c0.428,2.438-0.836,4.863-3.084,5.905c-2.247,1.051-4.917,0.449-6.502-1.448c-28.473-34.015-41.801-61.984-40.751-85.505       c2.523-51.584-5.44-65.156-10.412-68.657c-1.421-1.002-3.725-2.082-7.993-0.925c-6.376,34.304-9.509,68.468-9.309,101.601       c0.228,23.504,8.438,47.661,24.405,71.786l20.087,29.712c8.948,12.688,11.863,26.602,8.605,41.262L93.166,404.219z        M256.123,292.807c-0.949,0-1.895-0.245-2.745-0.737c-24.399-14.142-51.724-29.99-81.966-47.547       c-1.688-0.978-2.726-2.781-2.726-4.732v-94.54c0-2.25,1.354-4.179,3.292-5.023l81.402-47.121       c1.691-0.979,3.779-0.983,5.476-0.003c0.235,0.136,0.46,0.286,0.669,0.454l81.046,46.809c1.802,0.903,3.058,2.75,3.058,4.885       v94.54c0,1.951-1.039,3.755-2.726,4.732c-30.27,17.56-57.611,33.408-82.038,47.55       C258.018,292.562,257.069,292.807,256.123,292.807z M179.633,236.64c28.037,16.274,53.536,31.067,76.493,44.369       c22.978-13.305,48.495-28.095,76.557-44.369v-88.193l-71.086-41.056v108.722l42.517-42.513c2.138-2.138,5.602-2.138,7.739,0       c2.139,2.136,2.139,5.604,0,7.739l-51.83,51.827c-0.102,0.102-0.203,0.197-0.313,0.291l0,0       c-0.002,0.003-0.002,0.003-0.005,0.006c-0.848,0.734-1.868,1.165-2.916,1.293c-0.005,0-0.008,0.003-0.013,0.003       c-0.329,0.037-0.66,0.045-0.992,0.026c-0.002,0-0.005,0-0.008,0c0,0,0,0-0.003,0c-1.27-0.08-2.515-0.604-3.49-1.563       c0.003-0.002-0.005-0.005-0.011-0.008c-0.005-0.005-0.005-0.011-0.011-0.011c-0.002-0.005-0.002-0.005-0.005-0.008       l-51.927-51.854c-2.141-2.135-2.141-5.601-0.006-7.738c2.136-2.138,5.6-2.144,7.74-0.005l42.586,42.525V107.335l-71.017,41.111       V236.64z" fill="#333333"/></g></g></g></g></svg>